%TF.GenerationSoftware,KiCad,Pcbnew,(6.0.10)*%
%TF.CreationDate,2023-05-23T02:16:15+09:00*%
%TF.ProjectId,GC,47432e6b-6963-4616-945f-706362585858,rev?*%
%TF.SameCoordinates,Original*%
%TF.FileFunction,Copper,L2,Bot*%
%TF.FilePolarity,Positive*%
%FSLAX46Y46*%
G04 Gerber Fmt 4.6, Leading zero omitted, Abs format (unit mm)*
G04 Created by KiCad (PCBNEW (6.0.10)) date 2023-05-23 02:16:15*
%MOMM*%
%LPD*%
G01*
G04 APERTURE LIST*
%TA.AperFunction,ComponentPad*%
%ADD10R,1.700000X1.700000*%
%TD*%
%TA.AperFunction,ComponentPad*%
%ADD11O,1.700000X1.700000*%
%TD*%
G04 APERTURE END LIST*
D10*
%TO.P,J3,1,Pin_1*%
%TO.N,SW_in*%
X126731000Y-80264000D03*
D11*
%TO.P,J3,2,Pin_2*%
%TO.N,SW_out*%
X129271000Y-80264000D03*
%TD*%
D10*
%TO.P,J1,1,Pin_1*%
%TO.N,SW_in*%
X126726000Y-84582000D03*
D11*
%TO.P,J1,2,Pin_2*%
%TO.N,SW_out*%
X129266000Y-84582000D03*
%TD*%
D10*
%TO.P,J2,1,Pin_1*%
%TO.N,Vline*%
X126741000Y-92710000D03*
D11*
%TO.P,J2,2,Pin_2*%
%TO.N,Vout*%
X129281000Y-92710000D03*
%TD*%
%TA.AperFunction,Conductor*%
%TO.N,Vout*%
G36*
X130736913Y-84909186D02*
G01*
X130790131Y-84956180D01*
X130809500Y-85023305D01*
X130809500Y-92213710D01*
X130789498Y-92281831D01*
X130735842Y-92328324D01*
X130665568Y-92338428D01*
X130600988Y-92308934D01*
X130567950Y-92263952D01*
X130483972Y-92070814D01*
X130479105Y-92061739D01*
X130363426Y-91882926D01*
X130357136Y-91874757D01*
X130213806Y-91717240D01*
X130206273Y-91710215D01*
X130039139Y-91578222D01*
X130030552Y-91572517D01*
X129844117Y-91469599D01*
X129834705Y-91465369D01*
X129633959Y-91394280D01*
X129623988Y-91391646D01*
X129552837Y-91378972D01*
X129539540Y-91380432D01*
X129535000Y-91394989D01*
X129535000Y-92838000D01*
X129514998Y-92906121D01*
X129461342Y-92952614D01*
X129409000Y-92964000D01*
X129153000Y-92964000D01*
X129084879Y-92943998D01*
X129038386Y-92890342D01*
X129027000Y-92838000D01*
X129027000Y-91393102D01*
X129023082Y-91379758D01*
X129008806Y-91377771D01*
X128970324Y-91383660D01*
X128960288Y-91386051D01*
X128757868Y-91452212D01*
X128748359Y-91456209D01*
X128559463Y-91554542D01*
X128550738Y-91560036D01*
X128380433Y-91687905D01*
X128372726Y-91694748D01*
X128295478Y-91775584D01*
X128233954Y-91811014D01*
X128163042Y-91807557D01*
X128105255Y-91766311D01*
X128086402Y-91732763D01*
X128044767Y-91621703D01*
X128041615Y-91613295D01*
X127954261Y-91496739D01*
X127837705Y-91409385D01*
X127701316Y-91358255D01*
X127639134Y-91351500D01*
X125842866Y-91351500D01*
X125780684Y-91358255D01*
X125644295Y-91409385D01*
X125527739Y-91496739D01*
X125522358Y-91503919D01*
X125449326Y-91601365D01*
X125392467Y-91643880D01*
X125321648Y-91648906D01*
X125259355Y-91614846D01*
X125225365Y-91552515D01*
X125222500Y-91525800D01*
X125222500Y-85786214D01*
X125242502Y-85718093D01*
X125296158Y-85671600D01*
X125366432Y-85661496D01*
X125431012Y-85690990D01*
X125449325Y-85710648D01*
X125512739Y-85795261D01*
X125629295Y-85882615D01*
X125765684Y-85933745D01*
X125827866Y-85940500D01*
X127624134Y-85940500D01*
X127686316Y-85933745D01*
X127822705Y-85882615D01*
X127939261Y-85795261D01*
X128026615Y-85678705D01*
X128048799Y-85619529D01*
X128070598Y-85561382D01*
X128113240Y-85504618D01*
X128179802Y-85479918D01*
X128249150Y-85495126D01*
X128283817Y-85523114D01*
X128312250Y-85555938D01*
X128484126Y-85698632D01*
X128677000Y-85811338D01*
X128885692Y-85891030D01*
X128890760Y-85892061D01*
X128890763Y-85892062D01*
X128998017Y-85913883D01*
X129104597Y-85935567D01*
X129109772Y-85935757D01*
X129109774Y-85935757D01*
X129322673Y-85943564D01*
X129322677Y-85943564D01*
X129327837Y-85943753D01*
X129332957Y-85943097D01*
X129332959Y-85943097D01*
X129544288Y-85916025D01*
X129544289Y-85916025D01*
X129549416Y-85915368D01*
X129554366Y-85913883D01*
X129758429Y-85852661D01*
X129758434Y-85852659D01*
X129763384Y-85851174D01*
X129963994Y-85752896D01*
X130145860Y-85623173D01*
X130304096Y-85465489D01*
X130434453Y-85284077D01*
X130533430Y-85083811D01*
X130562942Y-84986676D01*
X130601883Y-84927312D01*
X130666737Y-84898425D01*
X130736913Y-84909186D01*
G37*
%TD.AperFunction*%
%TD*%
M02*
