%TF.GenerationSoftware,KiCad,Pcbnew,(6.0.10)*%
%TF.CreationDate,2023-05-23T02:16:15+09:00*%
%TF.ProjectId,GC,47432e6b-6963-4616-945f-706362585858,rev?*%
%TF.SameCoordinates,Original*%
%TF.FileFunction,Legend,Bot*%
%TF.FilePolarity,Positive*%
%FSLAX46Y46*%
G04 Gerber Fmt 4.6, Leading zero omitted, Abs format (unit mm)*
G04 Created by KiCad (PCBNEW (6.0.10)) date 2023-05-23 02:16:15*
%MOMM*%
%LPD*%
G01*
G04 APERTURE LIST*
%ADD10C,0.150000*%
G04 APERTURE END LIST*
D10*
X125452190Y-79184952D02*
X125404571Y-79137333D01*
X125356952Y-79042095D01*
X125356952Y-78946857D01*
X125404571Y-78851619D01*
X125452190Y-78804000D01*
X125547428Y-78756380D01*
X125642666Y-78756380D01*
X125737904Y-78804000D01*
X125785523Y-78851619D01*
X125833142Y-78946857D01*
X125833142Y-79042095D01*
X125785523Y-79137333D01*
X125737904Y-79184952D01*
X125356952Y-79184952D02*
X125737904Y-79184952D01*
X125785523Y-79232571D01*
X125785523Y-79280190D01*
X125737904Y-79375428D01*
X125642666Y-79423047D01*
X125404571Y-79423047D01*
X125261714Y-79327809D01*
X125166476Y-79184952D01*
X125118857Y-78994476D01*
X125166476Y-78804000D01*
X125261714Y-78661142D01*
X125404571Y-78565904D01*
X125595047Y-78518285D01*
X125785523Y-78565904D01*
X125928380Y-78661142D01*
X126023619Y-78804000D01*
X126071238Y-78994476D01*
X126023619Y-79184952D01*
X125928380Y-79327809D01*
X125928380Y-79851619D02*
X124928380Y-79851619D01*
X125928380Y-80280190D02*
X125404571Y-80280190D01*
X125309333Y-80232571D01*
X125261714Y-80137333D01*
X125261714Y-79994476D01*
X125309333Y-79899238D01*
X125356952Y-79851619D01*
X125880761Y-81137333D02*
X125928380Y-81042095D01*
X125928380Y-80851619D01*
X125880761Y-80756380D01*
X125785523Y-80708761D01*
X125404571Y-80708761D01*
X125309333Y-80756380D01*
X125261714Y-80851619D01*
X125261714Y-81042095D01*
X125309333Y-81137333D01*
X125404571Y-81184952D01*
X125499809Y-81184952D01*
X125595047Y-80708761D01*
X125261714Y-82042095D02*
X126261714Y-82042095D01*
X125880761Y-82042095D02*
X125928380Y-81946857D01*
X125928380Y-81756380D01*
X125880761Y-81661142D01*
X125833142Y-81613523D01*
X125737904Y-81565904D01*
X125452190Y-81565904D01*
X125356952Y-81613523D01*
X125309333Y-81661142D01*
X125261714Y-81756380D01*
X125261714Y-81946857D01*
X125309333Y-82042095D01*
X125261714Y-82946857D02*
X125928380Y-82946857D01*
X125261714Y-82518285D02*
X125785523Y-82518285D01*
X125880761Y-82565904D01*
X125928380Y-82661142D01*
X125928380Y-82804000D01*
X125880761Y-82899238D01*
X125833142Y-82946857D01*
X125261714Y-83280190D02*
X125261714Y-83661142D01*
X124928380Y-83423047D02*
X125785523Y-83423047D01*
X125880761Y-83470666D01*
X125928380Y-83565904D01*
X125928380Y-83661142D01*
X125642666Y-83946857D02*
X125642666Y-84423047D01*
X125928380Y-83851619D02*
X124928380Y-84184952D01*
X125928380Y-84518285D01*
X125928380Y-85327809D02*
X125928380Y-84851619D01*
X124928380Y-84851619D01*
X125642666Y-85613523D02*
X125642666Y-86089714D01*
X125928380Y-85518285D02*
X124928380Y-85851619D01*
X125928380Y-86184952D01*
X125404571Y-86851619D02*
X125452190Y-86994476D01*
X125499809Y-87042095D01*
X125595047Y-87089714D01*
X125737904Y-87089714D01*
X125833142Y-87042095D01*
X125880761Y-86994476D01*
X125928380Y-86899238D01*
X125928380Y-86518285D01*
X124928380Y-86518285D01*
X124928380Y-86851619D01*
X124976000Y-86946857D01*
X125023619Y-86994476D01*
X125118857Y-87042095D01*
X125214095Y-87042095D01*
X125309333Y-86994476D01*
X125356952Y-86946857D01*
X125404571Y-86851619D01*
X125404571Y-86518285D01*
M02*
