%TF.GenerationSoftware,KiCad,Pcbnew,(6.0.10)*%
%TF.CreationDate,2023-05-23T02:16:15+09:00*%
%TF.ProjectId,GC,47432e6b-6963-4616-945f-706362585858,rev?*%
%TF.SameCoordinates,Original*%
%TF.FileFunction,Legend,Top*%
%TF.FilePolarity,Positive*%
%FSLAX46Y46*%
G04 Gerber Fmt 4.6, Leading zero omitted, Abs format (unit mm)*
G04 Created by KiCad (PCBNEW (6.0.10)) date 2023-05-23 02:16:15*
%MOMM*%
%LPD*%
G01*
G04 APERTURE LIST*
%ADD10C,0.060000*%
%ADD11C,0.120000*%
%ADD12C,0.152400*%
G04 APERTURE END LIST*
D10*
%TO.C,R1*%
X125910952Y-88712666D02*
X125720476Y-88846000D01*
X125910952Y-88941238D02*
X125510952Y-88941238D01*
X125510952Y-88788857D01*
X125530000Y-88750761D01*
X125549047Y-88731714D01*
X125587142Y-88712666D01*
X125644285Y-88712666D01*
X125682380Y-88731714D01*
X125701428Y-88750761D01*
X125720476Y-88788857D01*
X125720476Y-88941238D01*
X125910952Y-88331714D02*
X125910952Y-88560285D01*
X125910952Y-88446000D02*
X125510952Y-88446000D01*
X125568095Y-88484095D01*
X125606190Y-88522190D01*
X125625238Y-88560285D01*
D11*
%TO.C,J3*%
X126731000Y-81594000D02*
X125401000Y-81594000D01*
X130601000Y-81594000D02*
X130601000Y-78934000D01*
X125401000Y-81594000D02*
X125401000Y-80264000D01*
X128001000Y-81594000D02*
X128001000Y-78934000D01*
X128001000Y-81594000D02*
X130601000Y-81594000D01*
X128001000Y-78934000D02*
X130601000Y-78934000D01*
D12*
%TO.C,U1*%
X130784600Y-87807800D02*
X129870200Y-87807800D01*
X128701800Y-87807800D02*
X127787400Y-87807800D01*
X127787400Y-88341200D02*
X127787400Y-88976200D01*
X130784600Y-88976200D02*
X130784600Y-87807800D01*
X127787400Y-87807800D02*
X127787400Y-88341200D01*
X128066801Y-88773000D02*
G75*
G03*
X127787400Y-88341199I-272005J130292D01*
G01*
D11*
%TO.C,J1*%
X127996000Y-85912000D02*
X130596000Y-85912000D01*
X127996000Y-85912000D02*
X127996000Y-83252000D01*
X125396000Y-85912000D02*
X125396000Y-84582000D01*
X130596000Y-85912000D02*
X130596000Y-83252000D01*
X126726000Y-85912000D02*
X125396000Y-85912000D01*
X127996000Y-83252000D02*
X130596000Y-83252000D01*
%TO.C,J2*%
X126741000Y-94040000D02*
X125411000Y-94040000D01*
X128011000Y-94040000D02*
X128011000Y-91380000D01*
X128011000Y-94040000D02*
X130611000Y-94040000D01*
X130611000Y-94040000D02*
X130611000Y-91380000D01*
X128011000Y-91380000D02*
X130611000Y-91380000D01*
X125411000Y-94040000D02*
X125411000Y-92710000D01*
%TO.C,R1*%
X126252500Y-88900724D02*
X126252500Y-88391276D01*
X125207500Y-88900724D02*
X125207500Y-88391276D01*
%TD*%
M02*
