%TF.GenerationSoftware,KiCad,Pcbnew,(6.0.10)*%
%TF.CreationDate,2023-05-23T02:16:13+09:00*%
%TF.ProjectId,GC,47432e6b-6963-4616-945f-706362585858,rev?*%
%TF.SameCoordinates,Original*%
%TF.FileFunction,Drillmap*%
%TF.FilePolarity,Positive*%
%FSLAX45Y45*%
G04 Gerber Fmt 4.5, Leading zero omitted, Abs format (unit mm)*
G04 Created by KiCad (PCBNEW (6.0.10)) date 2023-05-23 02:16:13*
%MOMM*%
%LPD*%
G01*
G04 APERTURE LIST*
%ADD10C,0.100000*%
%ADD11C,0.200000*%
G04 APERTURE END LIST*
D10*
X12471400Y-7823200D02*
X13131800Y-7823200D01*
X13131800Y-7823200D02*
X13131800Y-9474200D01*
X13131800Y-9474200D02*
X12471400Y-9474200D01*
X12471400Y-9474200D02*
X12471400Y-7823200D01*
D11*
D10*
X12622600Y-8408200D02*
X12722600Y-8508200D01*
X12722600Y-8408200D02*
X12622600Y-8508200D01*
X12623100Y-7976400D02*
X12723100Y-8076400D01*
X12723100Y-7976400D02*
X12623100Y-8076400D01*
X12624100Y-9221000D02*
X12724100Y-9321000D01*
X12724100Y-9221000D02*
X12624100Y-9321000D01*
X12876600Y-8408200D02*
X12976600Y-8508200D01*
X12976600Y-8408200D02*
X12876600Y-8508200D01*
X12877100Y-7976400D02*
X12977100Y-8076400D01*
X12977100Y-7976400D02*
X12877100Y-8076400D01*
X12878100Y-9221000D02*
X12978100Y-9321000D01*
X12978100Y-9221000D02*
X12878100Y-9321000D01*
D11*
X12724019Y-9789676D02*
X12724019Y-9589676D01*
X12771638Y-9589676D01*
X12800209Y-9599200D01*
X12819257Y-9618248D01*
X12828781Y-9637295D01*
X12838305Y-9675390D01*
X12838305Y-9703962D01*
X12828781Y-9742057D01*
X12819257Y-9761105D01*
X12800209Y-9780152D01*
X12771638Y-9789676D01*
X12724019Y-9789676D01*
X12924019Y-9789676D02*
X12924019Y-9656343D01*
X12924019Y-9694438D02*
X12933543Y-9675390D01*
X12943067Y-9665867D01*
X12962114Y-9656343D01*
X12981162Y-9656343D01*
X13047828Y-9789676D02*
X13047828Y-9656343D01*
X13047828Y-9589676D02*
X13038305Y-9599200D01*
X13047828Y-9608724D01*
X13057352Y-9599200D01*
X13047828Y-9589676D01*
X13047828Y-9608724D01*
X13171638Y-9789676D02*
X13152590Y-9780152D01*
X13143067Y-9761105D01*
X13143067Y-9589676D01*
X13276400Y-9789676D02*
X13257352Y-9780152D01*
X13247828Y-9761105D01*
X13247828Y-9589676D01*
X13504971Y-9789676D02*
X13504971Y-9589676D01*
X13571638Y-9732533D01*
X13638305Y-9589676D01*
X13638305Y-9789676D01*
X13819257Y-9789676D02*
X13819257Y-9684914D01*
X13809733Y-9665867D01*
X13790686Y-9656343D01*
X13752590Y-9656343D01*
X13733543Y-9665867D01*
X13819257Y-9780152D02*
X13800209Y-9789676D01*
X13752590Y-9789676D01*
X13733543Y-9780152D01*
X13724019Y-9761105D01*
X13724019Y-9742057D01*
X13733543Y-9723010D01*
X13752590Y-9713486D01*
X13800209Y-9713486D01*
X13819257Y-9703962D01*
X13914495Y-9656343D02*
X13914495Y-9856343D01*
X13914495Y-9665867D02*
X13933543Y-9656343D01*
X13971638Y-9656343D01*
X13990686Y-9665867D01*
X14000209Y-9675390D01*
X14009733Y-9694438D01*
X14009733Y-9751581D01*
X14000209Y-9770629D01*
X13990686Y-9780152D01*
X13971638Y-9789676D01*
X13933543Y-9789676D01*
X13914495Y-9780152D01*
X14095448Y-9770629D02*
X14104971Y-9780152D01*
X14095448Y-9789676D01*
X14085924Y-9780152D01*
X14095448Y-9770629D01*
X14095448Y-9789676D01*
X14095448Y-9665867D02*
X14104971Y-9675390D01*
X14095448Y-9684914D01*
X14085924Y-9675390D01*
X14095448Y-9665867D01*
X14095448Y-9684914D01*
D10*
X12366400Y-10069200D02*
X12466400Y-10169200D01*
X12466400Y-10069200D02*
X12366400Y-10169200D01*
D11*
X12828781Y-10209676D02*
X12714495Y-10209676D01*
X12771638Y-10209676D02*
X12771638Y-10009676D01*
X12752590Y-10038248D01*
X12733543Y-10057295D01*
X12714495Y-10066819D01*
X12914495Y-10190629D02*
X12924019Y-10200152D01*
X12914495Y-10209676D01*
X12904971Y-10200152D01*
X12914495Y-10190629D01*
X12914495Y-10209676D01*
X13047828Y-10009676D02*
X13066876Y-10009676D01*
X13085924Y-10019200D01*
X13095448Y-10028724D01*
X13104971Y-10047771D01*
X13114495Y-10085867D01*
X13114495Y-10133486D01*
X13104971Y-10171581D01*
X13095448Y-10190629D01*
X13085924Y-10200152D01*
X13066876Y-10209676D01*
X13047828Y-10209676D01*
X13028781Y-10200152D01*
X13019257Y-10190629D01*
X13009733Y-10171581D01*
X13000209Y-10133486D01*
X13000209Y-10085867D01*
X13009733Y-10047771D01*
X13019257Y-10028724D01*
X13028781Y-10019200D01*
X13047828Y-10009676D01*
X13238305Y-10009676D02*
X13257352Y-10009676D01*
X13276400Y-10019200D01*
X13285924Y-10028724D01*
X13295448Y-10047771D01*
X13304971Y-10085867D01*
X13304971Y-10133486D01*
X13295448Y-10171581D01*
X13285924Y-10190629D01*
X13276400Y-10200152D01*
X13257352Y-10209676D01*
X13238305Y-10209676D01*
X13219257Y-10200152D01*
X13209733Y-10190629D01*
X13200209Y-10171581D01*
X13190686Y-10133486D01*
X13190686Y-10085867D01*
X13200209Y-10047771D01*
X13209733Y-10028724D01*
X13219257Y-10019200D01*
X13238305Y-10009676D01*
X13428781Y-10009676D02*
X13447828Y-10009676D01*
X13466876Y-10019200D01*
X13476400Y-10028724D01*
X13485924Y-10047771D01*
X13495448Y-10085867D01*
X13495448Y-10133486D01*
X13485924Y-10171581D01*
X13476400Y-10190629D01*
X13466876Y-10200152D01*
X13447828Y-10209676D01*
X13428781Y-10209676D01*
X13409733Y-10200152D01*
X13400209Y-10190629D01*
X13390686Y-10171581D01*
X13381162Y-10133486D01*
X13381162Y-10085867D01*
X13390686Y-10047771D01*
X13400209Y-10028724D01*
X13409733Y-10019200D01*
X13428781Y-10009676D01*
X13581162Y-10209676D02*
X13581162Y-10076343D01*
X13581162Y-10095390D02*
X13590686Y-10085867D01*
X13609733Y-10076343D01*
X13638305Y-10076343D01*
X13657352Y-10085867D01*
X13666876Y-10104914D01*
X13666876Y-10209676D01*
X13666876Y-10104914D02*
X13676400Y-10085867D01*
X13695448Y-10076343D01*
X13724019Y-10076343D01*
X13743067Y-10085867D01*
X13752590Y-10104914D01*
X13752590Y-10209676D01*
X13847828Y-10209676D02*
X13847828Y-10076343D01*
X13847828Y-10095390D02*
X13857352Y-10085867D01*
X13876400Y-10076343D01*
X13904971Y-10076343D01*
X13924019Y-10085867D01*
X13933543Y-10104914D01*
X13933543Y-10209676D01*
X13933543Y-10104914D02*
X13943067Y-10085867D01*
X13962114Y-10076343D01*
X13990686Y-10076343D01*
X14009733Y-10085867D01*
X14019257Y-10104914D01*
X14019257Y-10209676D01*
X14409733Y-10000152D02*
X14238305Y-10257295D01*
X14666876Y-10009676D02*
X14685924Y-10009676D01*
X14704971Y-10019200D01*
X14714495Y-10028724D01*
X14724019Y-10047771D01*
X14733543Y-10085867D01*
X14733543Y-10133486D01*
X14724019Y-10171581D01*
X14714495Y-10190629D01*
X14704971Y-10200152D01*
X14685924Y-10209676D01*
X14666876Y-10209676D01*
X14647828Y-10200152D01*
X14638305Y-10190629D01*
X14628781Y-10171581D01*
X14619257Y-10133486D01*
X14619257Y-10085867D01*
X14628781Y-10047771D01*
X14638305Y-10028724D01*
X14647828Y-10019200D01*
X14666876Y-10009676D01*
X14819257Y-10190629D02*
X14828781Y-10200152D01*
X14819257Y-10209676D01*
X14809733Y-10200152D01*
X14819257Y-10190629D01*
X14819257Y-10209676D01*
X14952590Y-10009676D02*
X14971638Y-10009676D01*
X14990686Y-10019200D01*
X15000209Y-10028724D01*
X15009733Y-10047771D01*
X15019257Y-10085867D01*
X15019257Y-10133486D01*
X15009733Y-10171581D01*
X15000209Y-10190629D01*
X14990686Y-10200152D01*
X14971638Y-10209676D01*
X14952590Y-10209676D01*
X14933543Y-10200152D01*
X14924019Y-10190629D01*
X14914495Y-10171581D01*
X14904971Y-10133486D01*
X14904971Y-10085867D01*
X14914495Y-10047771D01*
X14924019Y-10028724D01*
X14933543Y-10019200D01*
X14952590Y-10009676D01*
X15085924Y-10009676D02*
X15209733Y-10009676D01*
X15143067Y-10085867D01*
X15171638Y-10085867D01*
X15190686Y-10095390D01*
X15200209Y-10104914D01*
X15209733Y-10123962D01*
X15209733Y-10171581D01*
X15200209Y-10190629D01*
X15190686Y-10200152D01*
X15171638Y-10209676D01*
X15114495Y-10209676D01*
X15095448Y-10200152D01*
X15085924Y-10190629D01*
X15304971Y-10209676D02*
X15343067Y-10209676D01*
X15362114Y-10200152D01*
X15371638Y-10190629D01*
X15390686Y-10162057D01*
X15400209Y-10123962D01*
X15400209Y-10047771D01*
X15390686Y-10028724D01*
X15381162Y-10019200D01*
X15362114Y-10009676D01*
X15324019Y-10009676D01*
X15304971Y-10019200D01*
X15295448Y-10028724D01*
X15285924Y-10047771D01*
X15285924Y-10095390D01*
X15295448Y-10114438D01*
X15304971Y-10123962D01*
X15324019Y-10133486D01*
X15362114Y-10133486D01*
X15381162Y-10123962D01*
X15390686Y-10114438D01*
X15400209Y-10095390D01*
X15571638Y-10076343D02*
X15571638Y-10209676D01*
X15524019Y-10000152D02*
X15476400Y-10143010D01*
X15600209Y-10143010D01*
X15666876Y-10009676D02*
X15666876Y-10047771D01*
X15743067Y-10009676D02*
X15743067Y-10047771D01*
X16038305Y-10285867D02*
X16028781Y-10276343D01*
X16009733Y-10247771D01*
X16000209Y-10228724D01*
X15990686Y-10200152D01*
X15981162Y-10152533D01*
X15981162Y-10114438D01*
X15990686Y-10066819D01*
X16000209Y-10038248D01*
X16009733Y-10019200D01*
X16028781Y-9990629D01*
X16038305Y-9981105D01*
X16200209Y-10009676D02*
X16162114Y-10009676D01*
X16143067Y-10019200D01*
X16133543Y-10028724D01*
X16114495Y-10057295D01*
X16104971Y-10095390D01*
X16104971Y-10171581D01*
X16114495Y-10190629D01*
X16124019Y-10200152D01*
X16143067Y-10209676D01*
X16181162Y-10209676D01*
X16200209Y-10200152D01*
X16209733Y-10190629D01*
X16219257Y-10171581D01*
X16219257Y-10123962D01*
X16209733Y-10104914D01*
X16200209Y-10095390D01*
X16181162Y-10085867D01*
X16143067Y-10085867D01*
X16124019Y-10095390D01*
X16114495Y-10104914D01*
X16104971Y-10123962D01*
X16457352Y-10209676D02*
X16457352Y-10009676D01*
X16543067Y-10209676D02*
X16543067Y-10104914D01*
X16533543Y-10085867D01*
X16514495Y-10076343D01*
X16485924Y-10076343D01*
X16466876Y-10085867D01*
X16457352Y-10095390D01*
X16666876Y-10209676D02*
X16647828Y-10200152D01*
X16638305Y-10190629D01*
X16628781Y-10171581D01*
X16628781Y-10114438D01*
X16638305Y-10095390D01*
X16647828Y-10085867D01*
X16666876Y-10076343D01*
X16695448Y-10076343D01*
X16714495Y-10085867D01*
X16724019Y-10095390D01*
X16733543Y-10114438D01*
X16733543Y-10171581D01*
X16724019Y-10190629D01*
X16714495Y-10200152D01*
X16695448Y-10209676D01*
X16666876Y-10209676D01*
X16847829Y-10209676D02*
X16828781Y-10200152D01*
X16819257Y-10181105D01*
X16819257Y-10009676D01*
X17000210Y-10200152D02*
X16981162Y-10209676D01*
X16943067Y-10209676D01*
X16924019Y-10200152D01*
X16914495Y-10181105D01*
X16914495Y-10104914D01*
X16924019Y-10085867D01*
X16943067Y-10076343D01*
X16981162Y-10076343D01*
X17000210Y-10085867D01*
X17009733Y-10104914D01*
X17009733Y-10123962D01*
X16914495Y-10143010D01*
X17085924Y-10200152D02*
X17104971Y-10209676D01*
X17143067Y-10209676D01*
X17162114Y-10200152D01*
X17171638Y-10181105D01*
X17171638Y-10171581D01*
X17162114Y-10152533D01*
X17143067Y-10143010D01*
X17114495Y-10143010D01*
X17095448Y-10133486D01*
X17085924Y-10114438D01*
X17085924Y-10104914D01*
X17095448Y-10085867D01*
X17114495Y-10076343D01*
X17143067Y-10076343D01*
X17162114Y-10085867D01*
X17238305Y-10285867D02*
X17247829Y-10276343D01*
X17266876Y-10247771D01*
X17276400Y-10228724D01*
X17285924Y-10200152D01*
X17295448Y-10152533D01*
X17295448Y-10114438D01*
X17285924Y-10066819D01*
X17276400Y-10038248D01*
X17266876Y-10019200D01*
X17247829Y-9990629D01*
X17238305Y-9981105D01*
M02*
